PathFileType	4	(X/Y/Z)	c:/Users/goper/Files/vsCode/490R/osim_files/C15/C15_Fast_05.trc
DataRate	CameraRate	NumFrames	NumMarkers	Units                	OrigDataRate	OrigDataStartFrame	OrigNumFrames
250.00	250.00	7	36	mm	250.0	1356	2711
                Frame#	Time	LPSIS			LASIS			LTH1			LTH2			LTH3			LTH4			LLFE			LMFE			LSH1			LSH2			LSH3			LSH4			LLMAL			LMMAL			LCAL			LMTP5			LTOE			LMTP1			RPSIS			RASIS			RTH1			RTH2			RTH3			RTH4			RLFE			RMFE			RSH1			RSH2			RSH3			RSH4			RLMAL			RMMAL			RCAL			RMTP1			RTOE			RMTP5		
		X1	Y1	Z1	X2	Y2	Z2	X3	Y3	Z3	X4	Y4	Z4	X5	Y5	Z5	X6	Y6	Z6	X7	Y7	Z7	X8	Y8	Z8	X9	Y9	Z9	X10	Y10	Z10	X11	Y11	Z11	X12	Y12	Z12	X13	Y13	Z13	X14	Y14	Z14	X15	Y15	Z15	X16	Y16	Z16	X17	Y17	Z17	X18	Y18	Z18	X19	Y19	Z19	X20	Y20	Z20	X21	Y21	Z21	X22	Y22	Z22	X23	Y23	Z23	X24	Y24	Z24	X25	Y25	Z25	X26	Y26	Z26	X27	Y27	Z27	X28	Y28	Z28	X29	Y29	Z29	X30	Y30	Z30	X31	Y31	Z31	X32	Y32	Z32	X33	Y33	Z33	X34	Y34	Z34	X35	Y35	Z35	X36	Y36	Z36

1356	5.42000	-67.66267	1026.58057	289.69415	-229.90666	1002.77118	358.34616	-275.80518	628.61194	443.77216	-293.33386	584.06812	429.14267	-321.01956	652.76123	438.91803	-337.49228	611.35229	432.52350	-322.01761	524.79712	409.57956	-340.50186	503.82034	289.83972	-232.39552	455.90073	415.88596	-212.66270	416.25464	424.59607	-286.10068	424.79324	427.04269	-259.00708	389.50055	432.83813	-118.24850	165.08127	382.29721	-160.18771	172.16565	296.61929	-59.65268	162.82309	329.83038	-206.46182	69.38545	415.35986	-275.76788	70.68419	363.13818	-232.73074	54.95022	303.50269	-74.42661	1029.15002	169.24809	-230.43063	997.50519	109.49709	-172.21849	623.96448	76.08780	-172.91315	579.07172	87.83562	-231.63268	624.79291	92.05953	-225.22893	577.97784	99.51974	-175.79919	488.16580	120.38876	-153.32399	477.51471	236.25145	-84.88165	388.37555	101.48637	-80.79051	344.52869	100.87458	-147.32806	373.39514	108.16139	-132.10088	333.99353	104.63985	-64.03397	86.10092	180.02730	-89.75177	110.76836	267.65195	2.64666	63.47759	224.67288	-195.58777	37.38515	274.25281	-234.60474	54.98355	222.12686	-176.65436	30.82859	153.90833
1357	5.42400	-72.13112	1026.49512	290.08923	-234.25938	1002.85699	357.57632	-282.29565	628.86017	443.84036	-299.70612	584.69421	428.67355	-326.53641	654.22449	438.32526	-343.79471	612.25055	431.89142	-328.59824	525.47693	408.93631	-346.90173	504.66785	289.38440	-239.98074	454.26239	415.99005	-221.45450	414.20508	424.73831	-294.33676	424.67947	426.79965	-267.98828	388.85272	432.62561	-133.00256	160.56702	382.94205	-174.55908	168.63998	297.18668	-74.18027	156.73383	330.47882	-223.72365	67.24838	415.97647	-292.78854	70.23247	363.67361	-250.25748	53.48883	304.21277	-79.00510	1028.98535	169.75510	-234.44745	997.31958	109.33528	-174.15723	624.00909	76.09000	-174.65556	579.08331	87.83053	-233.17453	624.65118	91.88239	-226.98894	577.70544	99.43947	-177.03706	488.06992	120.27769	-154.91505	477.50830	236.14365	-85.68532	388.58984	101.57990	-81.33603	344.80301	100.88543	-147.96555	373.38983	108.05598	-132.74254	334.08279	104.61839	-64.09593	86.34528	180.14194	-89.95048	110.96050	267.70782	2.58307	63.70798	224.75533	-195.64034	37.42124	274.18402	-234.85626	55.14129	222.08939	-176.33231	31.12606	153.64882
1358	5.42800	-76.57288	1026.44971	290.49838	-239.12109	1002.78613	357.45596	-288.50317	629.24561	443.48972	-306.16931	585.18268	428.11752	-332.57028	654.93359	437.83841	-350.01755	613.02271	431.33090	-334.95184	526.03088	408.29092	-353.05133	505.49658	289.03296	-247.58968	452.49515	416.19385	-230.14278	412.11560	424.94128	-302.94275	424.08972	426.38693	-277.29477	387.76328	432.45959	-147.91637	156.09483	383.51346	-189.02257	165.16518	297.69168	-89.12143	150.67781	331.16959	-241.04633	65.12034	416.54721	-309.92209	69.88697	364.13806	-267.78088	51.98406	304.82785	-83.12502	1028.88025	170.13414	-238.32564	997.15192	109.12955	-176.09315	624.03662	76.05831	-176.37440	579.08557	87.79751	-235.12796	624.37177	91.79051	-228.74127	577.41803	99.32448	-178.05551	488.09760	120.09231	-156.31357	477.56131	236.05788	-86.54016	388.84311	101.64638	-81.98382	345.05585	100.98306	-148.86378	373.50458	108.04460	-133.48152	334.17349	104.56612	-64.22636	86.58962	180.23279	-90.43104	111.13046	267.77466	2.49228	63.93795	224.84253	-195.62865	37.33783	274.22592	-234.89610	55.11463	222.07812	-176.32610	31.11589	153.65697
1359	5.43200	-81.07992	1026.29858	290.91800	-243.78017	1002.68652	357.29623	-294.61404	629.61395	443.09970	-312.45560	585.50513	427.52600	-338.47226	655.40753	437.41043	-356.19391	613.57349	430.63953	-341.32034	526.53778	407.53900	-359.11276	506.15759	288.51910	-255.66162	450.52164	416.85422	-238.87573	409.86960	425.27142	-311.36951	423.63940	426.07562	-286.63110	386.62698	432.31552	-162.82468	151.73509	384.08270	-203.60117	161.72517	298.15790	-104.29070	144.58298	331.80710	-258.37836	63.12144	417.15338	-326.92697	69.58183	364.67535	-285.35352	50.55305	305.39328	-86.91666	1028.84705	170.44243	-241.57729	997.15546	108.41225	-178.09940	624.06213	76.04308	-178.12224	579.12598	87.75956	-237.19232	624.01569	91.76324	-230.54115	577.17645	99.23714	-180.06775	487.59064	120.34021	-157.82266	477.70752	235.99368	-87.30128	389.14072	101.70789	-82.79230	345.31903	101.10405	-149.63631	373.46930	107.90914	-134.09129	334.25104	104.50719	-64.29290	86.85342	180.33032	-90.68054	111.35252	267.85355	2.40948	64.20174	224.92218	-195.66599	37.33817	274.21933	-234.96068	55.04013	222.03651	-176.34825	31.10170	153.66537
1360	5.43600	-85.66776	1026.12500	291.34662	-248.35515	1002.52338	357.16983	-300.48383	629.82648	442.67142	-318.44775	585.94391	426.99655	-344.31113	655.89819	436.86523	-362.11481	614.16357	429.93588	-347.36322	526.91156	406.86215	-365.04733	506.66064	287.98810	-263.34164	448.54202	417.23178	-247.78639	407.54056	425.64374	-319.71964	423.06155	425.80301	-296.20688	385.37061	432.04337	-177.98347	147.41014	384.59164	-218.29021	158.39999	298.60992	-119.57965	138.70366	332.39462	-275.72418	61.28276	417.62445	-344.11981	69.39735	365.09836	-302.92288	49.27600	305.93036	-91.41508	1028.66626	170.94331	-246.17017	996.70380	108.94669	-180.20676	624.07819	76.02718	-179.99269	579.11530	87.72899	-239.27835	623.71967	91.70361	-232.32274	576.86444	99.17200	-181.38602	487.32837	120.41604	-159.35722	477.66867	235.89517	-88.11928	389.48645	101.69260	-83.43608	345.63232	101.13867	-150.53214	373.51947	107.81339	-134.61591	334.36905	104.44772	-64.41251	87.09249	180.42197	-92.19306	110.33325	266.80627	2.02380	64.25571	225.03839	-196.30525	37.60797	273.87802	-235.04715	55.00229	222.01364	-176.32690	31.09214	153.63770
1361	5.44000	-90.21955	1025.90320	291.77609	-253.15353	1002.31140	356.92163	-306.40176	629.90759	442.18777	-324.44751	586.17505	426.34229	-350.09137	656.14917	436.26450	-368.07404	614.54742	429.17670	-353.51059	527.16064	406.12991	-370.91614	507.17542	287.47726	-271.01590	446.47733	417.62830	-256.64352	405.21338	426.06891	-328.19415	422.42441	425.61118	-305.56516	384.23868	432.04343	-193.22670	143.13443	385.12009	-233.66069	155.29544	299.00797	-135.04308	132.88841	332.94714	-293.19577	59.42261	418.14062	-361.26730	69.29883	365.53592	-320.58398	48.10360	306.38696	-95.26629	1028.48145	171.29211	-250.28120	996.28546	108.82256	-182.30745	624.05017	76.00319	-181.86241	579.10797	87.69939	-241.42572	623.38574	91.66162	-234.15038	576.53821	99.11318	-182.98830	487.30798	120.11196	-160.53041	477.69925	235.97601	-89.12838	389.71228	101.77468	-84.30397	345.94702	101.20411	-151.49982	373.54831	107.71833	-135.50987	334.42740	104.34647	-64.50874	87.31010	180.47372	-92.08994	110.73940	266.94296	2.09195	64.66382	225.05182	-195.62065	36.94840	273.41306	-235.16635	54.90316	221.91562	-176.34265	31.04313	153.64163
1362	5.44400	-94.74548	1025.67017	292.21793	-257.98944	1002.09729	356.79480	-312.24078	629.93402	441.64349	-330.35629	586.23199	425.62506	-355.70425	656.41046	435.67230	-373.81256	614.77881	428.39493	-359.37860	527.28943	405.41180	-376.59052	507.54776	286.91681	-278.58655	444.38290	418.02713	-265.56030	402.81293	426.50162	-336.48669	421.71664	425.36923	-315.02768	383.05145	431.95905	-208.85736	138.79199	385.48431	-248.43098	152.04149	299.38379	-150.51393	127.27060	333.52548	-310.56320	57.79979	418.48343	-378.28885	69.27252	365.93378	-338.55023	47.54310	306.64035	-99.47260	1028.29089	171.69009	-253.41988	996.31757	108.18507	-184.49005	624.03607	75.97983	-183.77159	579.09387	87.65981	-243.61821	623.07916	91.61068	-236.15262	576.27716	99.09400	-183.82217	487.64984	119.44801	-161.99707	477.69315	235.88870	-90.00671	389.95679	101.85571	-85.00140	346.21002	101.25995	-152.34119	373.47000	107.60599	-136.27960	334.50876	104.24807	-64.60076	87.54615	180.52779	-92.48219	110.85140	266.95236	1.96250	64.91607	225.07904	-195.93661	37.03760	273.42783	-235.21713	54.88147	221.86604	-176.66734	30.71221	153.88936
